<mxfile host="app.diagrams.net" modified="2023-09-28T19:01:14.246Z" agent="Mozilla/5.0 (Windows NT 10.0; Win64; x64) AppleWebKit/537.36 (KHTML, like Gecko) Chrome/117.0.0.0 Safari/537.36" etag="oQhaOvztP0L86LCYCtDt" version="21.6.8" type="github" pages="2">
  <diagram name="Page-1" id="Nse5wY_bH8jwk53ShEtP">
    <mxGraphModel dx="1434" dy="796" grid="1" gridSize="10" guides="1" tooltips="1" connect="1" arrows="1" fold="1" page="1" pageScale="1" pageWidth="850" pageHeight="1100" math="0" shadow="0">
      <root>
        <mxCell id="0" />
        <mxCell id="1" parent="0" />
        <mxCell id="orUIHTkBb77fn1glsP2X-1" value="&lt;h1&gt;Option 1&lt;/h1&gt;&lt;p&gt;This would require inserting a data container into existing Workflows. PES would make an API call to a .NET API Service I would create which would handle the logic of creating a request an then sending the relevant data to a data container in the request.&lt;br&gt;&lt;/p&gt;" style="text;html=1;strokeColor=none;fillColor=none;spacing=5;spacingTop=-20;whiteSpace=wrap;overflow=hidden;rounded=0;" vertex="1" parent="1">
          <mxGeometry x="205" y="50" width="440" height="120" as="geometry" />
        </mxCell>
        <mxCell id="orUIHTkBb77fn1glsP2X-7" style="edgeStyle=orthogonalEdgeStyle;rounded=0;orthogonalLoop=1;jettySize=auto;html=1;entryX=0;entryY=0.5;entryDx=0;entryDy=0;" edge="1" parent="1" source="orUIHTkBb77fn1glsP2X-2" target="orUIHTkBb77fn1glsP2X-5">
          <mxGeometry relative="1" as="geometry" />
        </mxCell>
        <mxCell id="orUIHTkBb77fn1glsP2X-2" value="&lt;b&gt;PES&lt;/b&gt;" style="rounded=0;whiteSpace=wrap;html=1;" vertex="1" parent="1">
          <mxGeometry x="70" y="250" width="130" height="110" as="geometry" />
        </mxCell>
        <mxCell id="orUIHTkBb77fn1glsP2X-8" style="edgeStyle=orthogonalEdgeStyle;rounded=0;orthogonalLoop=1;jettySize=auto;html=1;entryX=0;entryY=0.5;entryDx=0;entryDy=0;" edge="1" parent="1" source="orUIHTkBb77fn1glsP2X-5" target="orUIHTkBb77fn1glsP2X-6">
          <mxGeometry relative="1" as="geometry" />
        </mxCell>
        <mxCell id="orUIHTkBb77fn1glsP2X-5" value="&lt;b&gt;.NET API&lt;/b&gt;" style="rounded=0;whiteSpace=wrap;html=1;" vertex="1" parent="1">
          <mxGeometry x="360" y="250" width="130" height="110" as="geometry" />
        </mxCell>
        <mxCell id="orUIHTkBb77fn1glsP2X-6" value="&lt;b&gt;INTEGRIFY&lt;/b&gt;" style="rounded=0;whiteSpace=wrap;html=1;" vertex="1" parent="1">
          <mxGeometry x="630" y="250" width="130" height="110" as="geometry" />
        </mxCell>
        <mxCell id="CpX3hfYl-ch7GkNxg-wZ-1" value="&lt;b&gt;From a user perspective, a user would click a button in PES when all relevant header information was entered and the button would send that data to a .NET API middleman service. The service will create a request under the users name and send that data into a data container which would then prefill the initial request form.&lt;/b&gt;" style="text;html=1;strokeColor=none;fillColor=none;align=center;verticalAlign=middle;whiteSpace=wrap;rounded=0;" vertex="1" parent="1">
          <mxGeometry x="248" y="400" width="355" height="120" as="geometry" />
        </mxCell>
      </root>
    </mxGraphModel>
  </diagram>
  <diagram id="mNtJ9Mgz1n7K-fTunG2Z" name="Page-2">
    <mxGraphModel dx="1434" dy="796" grid="1" gridSize="10" guides="1" tooltips="1" connect="1" arrows="1" fold="1" page="1" pageScale="1" pageWidth="850" pageHeight="1100" math="0" shadow="0">
      <root>
        <mxCell id="0" />
        <mxCell id="1" parent="0" />
        <mxCell id="ML0WAdIs-0PHVN13LBZu-1" value="&lt;h1&gt;Option 2&lt;/h1&gt;&lt;p&gt;This would required PES to send header data into a table, whether Microsoft SQL or a JDE Table that Integrify can then query when making a request to then prefill header information..&lt;/p&gt;" style="text;html=1;strokeColor=none;fillColor=none;spacing=5;spacingTop=-20;whiteSpace=wrap;overflow=hidden;rounded=0;" vertex="1" parent="1">
          <mxGeometry x="245" y="10" width="360" height="120" as="geometry" />
        </mxCell>
        <mxCell id="wcFV6alyVgaQgxSxhN2q-4" style="edgeStyle=orthogonalEdgeStyle;rounded=0;orthogonalLoop=1;jettySize=auto;html=1;entryX=0;entryY=0.5;entryDx=0;entryDy=0;entryPerimeter=0;" edge="1" parent="1" source="wcFV6alyVgaQgxSxhN2q-1" target="wcFV6alyVgaQgxSxhN2q-3">
          <mxGeometry relative="1" as="geometry" />
        </mxCell>
        <mxCell id="wcFV6alyVgaQgxSxhN2q-1" value="&lt;b&gt;PES&lt;/b&gt;" style="whiteSpace=wrap;html=1;aspect=fixed;" vertex="1" parent="1">
          <mxGeometry x="90" y="210" width="120" height="120" as="geometry" />
        </mxCell>
        <mxCell id="wcFV6alyVgaQgxSxhN2q-3" value="&lt;b&gt;SQL/JDE Table&lt;/b&gt;" style="shape=cylinder3;whiteSpace=wrap;html=1;boundedLbl=1;backgroundOutline=1;size=15;" vertex="1" parent="1">
          <mxGeometry x="450" y="310" width="170" height="120" as="geometry" />
        </mxCell>
        <mxCell id="wcFV6alyVgaQgxSxhN2q-6" style="edgeStyle=orthogonalEdgeStyle;rounded=0;orthogonalLoop=1;jettySize=auto;html=1;entryX=0;entryY=0;entryDx=0;entryDy=82.5;entryPerimeter=0;startArrow=classic;startFill=1;" edge="1" parent="1" source="wcFV6alyVgaQgxSxhN2q-5" target="wcFV6alyVgaQgxSxhN2q-3">
          <mxGeometry relative="1" as="geometry" />
        </mxCell>
        <mxCell id="wcFV6alyVgaQgxSxhN2q-5" value="&lt;b&gt;Integrify&lt;/b&gt;" style="whiteSpace=wrap;html=1;aspect=fixed;" vertex="1" parent="1">
          <mxGeometry x="90" y="420" width="120" height="120" as="geometry" />
        </mxCell>
        <mxCell id="wcFV6alyVgaQgxSxhN2q-7" value="Integrify Workflows would need a Data Pull task that would query the DB based on a PK (P/Q Num and/or Reflection Number)" style="text;html=1;strokeColor=none;fillColor=none;align=center;verticalAlign=middle;whiteSpace=wrap;rounded=0;" vertex="1" parent="1">
          <mxGeometry x="220" y="440" width="250" height="130" as="geometry" />
        </mxCell>
        <mxCell id="wcFV6alyVgaQgxSxhN2q-8" value="In PES when a user has finished entering the orders header information they can press a button and we would create functionality to send that information to a Database. API/Orchestration" style="text;html=1;strokeColor=none;fillColor=none;align=center;verticalAlign=middle;whiteSpace=wrap;rounded=0;" vertex="1" parent="1">
          <mxGeometry x="220" y="180" width="190" height="70" as="geometry" />
        </mxCell>
        <mxCell id="7CBCRIDqWgRDaGyfXUm5-1" value="&lt;b&gt;From a users perspective, once header information is entered in PES they would click a button and that header information is stored in a table. Then when they create a request in Integrify they can enter in the P/Q number and/or Reflection number and it will query the table and pull/prefill header information into the request/form. After the user clicks the button they should only have to go to view my requests and see the new request there.&lt;/b&gt;" style="text;html=1;strokeColor=none;fillColor=none;align=center;verticalAlign=middle;whiteSpace=wrap;rounded=0;" vertex="1" parent="1">
          <mxGeometry x="263" y="610" width="325" height="100" as="geometry" />
        </mxCell>
      </root>
    </mxGraphModel>
  </diagram>
</mxfile>
